<svg xmlns="http://www.w3.org/2000/svg" viewBox="0 0 240 320"><polygon stroke="blue" stroke-width="1" transform="translate(110 120)" points="0 0 -18.0 24.0 32.0 24.0" fill="red"/><g id="Corolla 7" fill="red"><polygon stroke="blue" transform="translate(110 120) rotate(126.86989764584402)" points="0 0 30.0 0.0 54.270509831248425 17.633557568774194 63.54101966249685 46.1652530576288 54.27050983124843 74.69694854648341 30.00000000000001 92.3305061152576 1.0658141036401503e-14 92.3305061152576 -24.270509831248415 74.69694854648341 -33.54101966249684 46.1652530576288 -24.270509831248425 17.633557568774194"><animateTransform begin="0s" dur="2s" repeatCount="indefinite" values="-2;2;-2" additive="sum" type="skewX" attributeName="transform"/></polygon><polygon stroke="blue" transform="translate(110 120) scale(1 -1) rotate(-36.86989764584401)" points="0 0 40.0 0.0 72.36067977499789 23.511410091698927 84.72135954999578 61.553670743505066 72.36067977499789 99.59593139531121 40.0 123.10734148701015 0.0 123.10734148701015 -32.360679774997905 99.59593139531123 -44.72135954999581 61.55367074350509 -32.36067977499792 23.51141009169894"><animateTransform begin="0s" dur="2s" repeatCount="indefinite" values="-2;2;-2" additive="sum" type="skewX" attributeName="transform"/></polygon><polygon stroke="blue" transform="translate(92.0 144.0)" points="0 0 50.0 0.0 90.45084971874738 29.389262614623657 105.90169943749476 76.94208842938133 90.45084971874739 124.49491424413901 50.00000000000003 153.88417685876266 2.842170943040401e-14 153.88417685876266 -40.45084971874735 124.49491424413901 -55.90169943749473 76.94208842938133 -40.450849718747364 29.389262614623647"><animateTransform begin="0s" dur="2s" repeatCount="indefinite" values="-2;2;-2" additive="sum" type="skewY" attributeName="transform"/></polygon></g><g id="Corolla 6" fill="red"><polygon stroke="blue" transform="translate(110 120) rotate(126.86989764584402)" points="0 0 30.0 0.0 52.981333293569335 19.283628290596177 58.190778623577245 48.82786088096242 43.19077862357725 74.80862299449558 15.000000000000004 85.06922729426564 -13.190778623577248 74.80862299449558 -28.190778623577263 48.827860880962426 -22.981333293569364 19.283628290596184"><animateTransform begin="0s" dur="2s" repeatCount="indefinite" values="-2;2;-2" additive="sum" type="skewX" attributeName="transform"/></polygon><polygon stroke="blue" transform="translate(110 120) scale(1 -1) rotate(-36.86989764584401)" points="0 0 40.0 0.0 70.64177772475912 25.71150438746157 77.58770483143634 65.10381450794989 57.58770483143635 99.74483065932745 20.000000000000014 113.4256363923542 -17.587704831436326 99.74483065932746 -37.58770483143634 65.10381450794992 -30.64177772475914 25.711504387461595"><animateTransform begin="0s" dur="2s" repeatCount="indefinite" values="-2;2;-2" additive="sum" type="skewX" attributeName="transform"/></polygon><polygon stroke="blue" transform="translate(92.0 144.0)" points="0 0 50.0 0.0 88.3022221559489 32.13938048432696 96.98463103929542 81.37976813493736 71.98463103929544 124.6810383241593 25.00000000000002 141.78204549044275 -21.9846310392954 124.68103832415932 -46.98463103929542 81.3797681349374 -38.302222155948925 32.139380484326985"><animateTransform begin="0s" dur="2s" repeatCount="indefinite" values="-2;2;-2" additive="sum" type="skewY" attributeName="transform"/></polygon></g><g id="Corolla 5" fill="red"><polygon stroke="blue" transform="translate(110 120) rotate(126.86989764584402)" points="0 0 30.0 0.0 51.21320343559643 21.213203435596423 51.21320343559643 51.21320343559643 30.000000000000004 72.42640687119285 3.552713678800501e-15 72.42640687119285 -21.213203435596427 51.21320343559643 -21.213203435596434 21.213203435596427"><animateTransform begin="0s" dur="2s" repeatCount="indefinite" values="-2;2;-2" additive="sum" type="skewX" attributeName="transform"/></polygon><polygon stroke="blue" transform="translate(110 120) scale(1 -1) rotate(-36.86989764584401)" points="0 0 40.0 0.0 68.2842712474619 28.2842712474619 68.2842712474619 68.2842712474619 40.0 96.5685424949238 0.0 96.5685424949238 -28.28427124746191 68.2842712474619 -28.284271247461916 28.284271247461902"><animateTransform begin="0s" dur="2s" repeatCount="indefinite" values="-2;2;-2" additive="sum" type="skewX" attributeName="transform"/></polygon><polygon stroke="blue" transform="translate(92.0 144.0)" points="0 0 50.0 0.0 85.35533905932738 35.35533905932737 85.35533905932738 85.35533905932738 50.00000000000001 120.71067811865476 7.105427357601002e-15 120.71067811865476 -35.35533905932738 85.35533905932738 -35.355339059327385 35.35533905932738"><animateTransform begin="0s" dur="2s" repeatCount="indefinite" values="-2;2;-2" additive="sum" type="skewY" attributeName="transform"/></polygon></g><g id="Corolla 4" fill="red"><polygon stroke="blue" transform="translate(110 120) rotate(126.86989764584402)" points="0 0 30.0 0.0 48.704694055762005 23.454944474040893 42.029066037072575 52.7027818394956 15.000000000000004 65.71929401302235 -12.029066037072571 52.70278183949561 -18.70469405576201 23.4549444740409"><animateTransform begin="0s" dur="2s" repeatCount="indefinite" values="-2;2;-2" additive="sum" type="skewX" attributeName="transform"/></polygon><polygon stroke="blue" transform="translate(110 120) scale(1 -1) rotate(-36.86989764584401)" points="0 0 40.0 0.0 64.93959207434935 31.273259298721193 56.038754716096776 70.27037578599413 20.000000000000014 87.62572535069646 -16.038754716096754 70.27037578599413 -24.93959207434934 31.273259298721186"><animateTransform begin="0s" dur="2s" repeatCount="indefinite" values="-2;2;-2" additive="sum" type="skewX" attributeName="transform"/></polygon><polygon stroke="blue" transform="translate(92.0 144.0)" points="0 0 50.0 0.0 81.17449009293668 39.09157412340149 70.04844339512096 87.83796973249267 25.0 109.53215668837058 -20.048443395120955 87.83796973249268 -31.174490092936686 39.0915741234015"><animateTransform begin="0s" dur="2s" repeatCount="indefinite" values="-2;2;-2" additive="sum" type="skewY" attributeName="transform"/></polygon></g><g id="Corolla 3" fill="red"><polygon stroke="blue" transform="translate(110 120) rotate(126.86989764584402)" points="0 0 30.0 0.0 45.0 25.980762113533157 30.000000000000007 51.96152422706632 7.105427357601002e-15 51.96152422706633 -15.000000000000007 25.980762113533174"><animateTransform begin="0s" dur="2s" repeatCount="indefinite" values="-2;2;-2" additive="sum" type="skewX" attributeName="transform"/></polygon><polygon stroke="blue" transform="translate(110 120) scale(1 -1) rotate(-36.86989764584401)" points="0 0 40.0 0.0 60.0 34.64101615137754 40.00000000000001 69.28203230275508 7.105427357601002e-15 69.28203230275508 -20.00000000000001 34.64101615137755"><animateTransform begin="0s" dur="2s" repeatCount="indefinite" values="-2;2;-2" additive="sum" type="skewX" attributeName="transform"/></polygon><polygon stroke="blue" transform="translate(92.0 144.0)" points="0 0 50.0 0.0 75.0 43.30127018922193 50.000000000000014 86.60254037844388 1.4210854715202004e-14 86.60254037844388 -25.000000000000007 43.30127018922196"><animateTransform begin="0s" dur="2s" repeatCount="indefinite" values="-2;2;-2" additive="sum" type="skewY" attributeName="transform"/></polygon></g><g id="Corolla 2" fill="red"><polygon stroke="blue" transform="translate(110 120) rotate(126.86989764584402)" points="0 0 30.0 0.0 39.270509831248425 28.531695488854606 15.000000000000004 46.1652530576288 -9.270509831248422 28.531695488854613"><animateTransform begin="0s" dur="2s" repeatCount="indefinite" values="-2;2;-2" additive="sum" type="skewX" attributeName="transform"/></polygon><polygon stroke="blue" transform="translate(110 120) scale(1 -1) rotate(-36.86989764584401)" points="0 0 40.0 0.0 52.3606797749979 38.04226065180614 20.000000000000007 61.553670743505066 -12.360679774997898 38.042260651806146"><animateTransform begin="0s" dur="2s" repeatCount="indefinite" values="-2;2;-2" additive="sum" type="skewX" attributeName="transform"/></polygon><polygon stroke="blue" transform="translate(92.0 144.0)" points="0 0 50.0 0.0 65.45084971874738 47.552825814757675 25.000000000000014 76.94208842938133 -15.450849718747364 47.55282581475768"><animateTransform begin="0s" dur="2s" repeatCount="indefinite" values="-2;2;-2" additive="sum" type="skewY" attributeName="transform"/></polygon></g><g id="Corolla 1" fill="red"><polygon stroke="blue" transform="translate(110 120) rotate(126.86989764584402)" points="0 0 30.0 0.0 30.000000000000004 30.0 3.552713678800501e-15 30.000000000000004"><animateTransform begin="0s" dur="2s" repeatCount="indefinite" values="-2;2;-2" additive="sum" type="skewX" attributeName="transform"/></polygon><polygon stroke="blue" transform="translate(110 120) scale(1 -1) rotate(-36.86989764584401)" points="0 0 40.0 0.0 40.0 40.0 0.0 40.00000000000001"><animateTransform begin="0s" dur="2s" repeatCount="indefinite" values="-2;2;-2" additive="sum" type="skewX" attributeName="transform"/></polygon><polygon stroke="blue" transform="translate(92.0 144.0)" points="0 0 50.0 0.0 50.0 50.0 0.0 50.00000000000001"><animateTransform begin="0s" dur="2s" repeatCount="indefinite" values="-2;2;-2" additive="sum" type="skewY" attributeName="transform"/></polygon></g><g id="Corolla 0" fill="red"><polygon stroke="blue" transform="translate(110 120) rotate(126.86989764584402)" points="0 0 30.0 0.0 15.000000000000007 25.98076211353316"><animateTransform begin="0s" dur="2s" repeatCount="indefinite" values="-2;2;-2" additive="sum" type="skewX" attributeName="transform"/></polygon><polygon stroke="blue" transform="translate(110 120) scale(1 -1) rotate(-36.86989764584401)" points="0 0 40.0 0.0 20.000000000000007 34.64101615137755"><animateTransform begin="0s" dur="2s" repeatCount="indefinite" values="-2;2;-2" additive="sum" type="skewX" attributeName="transform"/></polygon><polygon stroke="blue" transform="translate(92.0 144.0)" points="0 0 50.0 0.0 25.00000000000001 43.30127018922194"><animateTransform begin="0s" dur="2s" repeatCount="indefinite" values="-2;2;-2" additive="sum" type="skewY" attributeName="transform"/></polygon></g></svg>